<?xml version="1.0" standalone="no"?>
<!DOCTYPE svg PUBLIC "-//W3C//DTD SVG 20010904//EN"
 "http://www.w3.org/TR/2001/REC-SVG-20010904/DTD/svg10.dtd">
<svg version="1.0" xmlns="http://www.w3.org/2000/svg"
 width="700.000000pt" height="700.000000pt" viewBox="0 0 700.000000 700.000000"
 preserveAspectRatio="xMidYMid meet">
<metadata>
Created by potrace 1.14, written by Peter Selinger 2001-2017
</metadata>
<g transform="translate(0.000000,700.000000) scale(0.100000,-0.100000)"
fill="#000000" stroke="none">
<path d="M4087 6124 c-1 -1 -38 -4 -82 -7 -535 -41 -1039 -349 -1331 -814 -30
-48 -53 -88 -51 -89 2 -2 30 1 63 6 151 26 514 35 644 17 325 -45 584 -125
840 -258 458 -240 825 -613 1045 -1064 73 -150 104 -227 141 -345 14 -47 27
-91 29 -98 3 -7 10 -14 17 -16 222 -64 391 -145 548 -262 98 -73 257 -238 327
-339 34 -49 69 -99 77 -110 14 -20 15 -20 68 9 197 108 365 281 463 476 32 63
80 198 89 250 21 115 24 158 21 275 -4 140 -19 219 -65 347 -120 329 -409 588
-755 677 -77 20 -101 23 -211 28 l-111 5 -22 72 c-218 687 -814 1172 -1516
1232 -77 7 -223 12 -228 8z"/>
<path d="M2997 4814 c-1 -1 -42 -4 -92 -7 -499 -35 -1007 -293 -1334 -678 -81
-96 -87 -103 -128 -166 -21 -32 -41 -60 -44 -63 -15 -11 -126 -231 -159 -314
-35 -87 -37 -90 -70 -93 -19 -2 -80 -13 -135 -24 -472 -98 -868 -473 -990
-940 -10 -35 -19 -77 -22 -94 -3 -16 -9 -50 -13 -75 -9 -47 -6 -324 4 -375 31
-159 45 -207 102 -335 44 -99 91 -177 160 -265 224 -287 535 -460 904 -503 71
-8 3952 -8 3985 1 11 2 40 8 65 12 128 21 310 98 427 181 58 41 188 163 223
209 153 198 230 415 235 657 6 267 -68 491 -229 698 -185 239 -473 396 -766
416 -52 4 -96 8 -98 9 -2 2 -6 23 -8 47 -8 67 -51 255 -80 343 -53 164 -154
369 -251 508 -94 136 -251 307 -358 392 -27 22 -52 42 -55 46 -3 3 -27 21 -55
40 -27 18 -52 36 -55 39 -7 7 -112 70 -180 107 -48 27 -149 71 -270 119 -102
39 -328 87 -476 99 -70 6 -233 12 -237 9z"/>
</g>
</svg>
